<svg width="27" height="28" viewBox="0 0 27 28" fill="none" xmlns="http://www.w3.org/2000/svg">
<path d="M5.19187 22.1667C4.67437 22.1667 4.24238 21.987 3.89588 21.6277C3.54863 21.2676 3.375 20.8192 3.375 20.2825V7.71751C3.375 7.18084 3.54863 6.73284 3.89588 6.37351C4.24238 6.0134 4.67437 5.83334 5.19187 5.83334H21.8081C22.3256 5.83334 22.7576 6.0134 23.1041 6.37351C23.4514 6.73284 23.625 7.18084 23.625 7.71751V20.2825C23.625 20.8192 23.4518 21.2672 23.1053 21.6265C22.758 21.9866 22.3256 22.1667 21.8081 22.1667H5.19187ZM13.5 14.1342L4.5 8.03251V20.2825C4.5 20.4917 4.56487 20.6636 4.69462 20.7982C4.82437 20.9327 4.99012 21 5.19187 21H21.8081C22.0099 21 22.1756 20.9327 22.3054 20.7982C22.4351 20.6636 22.5 20.4917 22.5 20.2825V8.03251L13.5 14.1342ZM13.5 12.8333L22.1535 7.00001H4.8465L13.5 12.8333ZM4.5 8.03251V7.00001V20.2825C4.5 20.4917 4.56487 20.6636 4.69462 20.7982C4.82437 20.9327 4.99012 21 5.19187 21H4.5V8.03251Z" fill="black"/>
</svg>
