<svg width="99" height="251" viewBox="0 0 99 251" fill="none" xmlns="http://www.w3.org/2000/svg">
<g opacity="0.9">
<rect x="1.58167" y="6.09006" width="93.9674" height="244.052" rx="10" transform="rotate(-0.701248 1.58167 6.09006)" fill="white"/>
<rect x="38.9702" y="23.4189" width="56.7935" height="8.89257" transform="rotate(-0.701248 38.9702 23.4189)" fill="#202020"/>
<rect x="39.2365" y="45.1546" width="56.7935" height="8.89257" transform="rotate(-0.701248 39.2365 45.1546)" fill="#202020"/>
<rect x="38.8009" y="9.58694" width="56.7935" height="7.90451" transform="rotate(-0.701248 38.8009 9.58694)" fill="#202020"/>
<rect x="39.3934" y="57.9984" width="56.7935" height="7.90451" transform="rotate(-0.701248 39.3934 57.9984)" fill="#202020"/>
<rect x="39.5508" y="70.8423" width="56.7935" height="7.90451" transform="rotate(-0.701248 39.5508 70.8423)" fill="#202020"/>
<path d="M95.6266 11.8555L1.67833 13.9939" stroke="#202020"/>
<line y1="-0.5" x2="83.6413" y2="-0.5" transform="matrix(-0.999927 0.0121209 -0.0121033 -0.999927 90.319 0.0729675)" stroke="#202020"/>
<line x1="96.3704" y1="72.6231" x2="2.41003" y2="73.7732" stroke="#202020"/>
<line x1="95.9351" y1="37.0557" x2="1.97472" y2="38.2058" stroke="#202020"/>
<line x1="96.5155" y1="84.4791" x2="2.55517" y2="85.6292" stroke="#202020"/>
<path d="M96.0801 48.9055L2.11972 50.0556" stroke="#202020"/>
<line x1="95.7898" y1="25.1997" x2="1.82946" y2="26.3497" stroke="#202020"/>
<path d="M95.6266 11.8555L1.67833 13.9939" stroke="#202020"/>
<line x1="95.1925" y1="60.7801" x2="1.23217" y2="61.9301" stroke="#202020"/>
<line x1="95.7898" y1="25.1997" x2="1.82946" y2="26.3497" stroke="#202020"/>
<path d="M95.6266 11.8555L1.67833 13.9939" stroke="#202020"/>
<line x1="96.3704" y1="72.6231" x2="2.41003" y2="73.7732" stroke="#202020"/>
<line x1="95.9351" y1="37.0557" x2="1.97472" y2="38.2058" stroke="#202020"/>
<line x1="96.5155" y1="84.4791" x2="2.55517" y2="85.6292" stroke="#202020"/>
<path d="M96.0801 48.9055L2.11972 50.0556" stroke="#202020"/>
<line x1="95.7898" y1="25.1997" x2="1.82946" y2="26.3497" stroke="#202020"/>
<path d="M95.6266 11.8555L1.67833 13.9939" stroke="#202020"/>
<line x1="95.1925" y1="60.7801" x2="1.23217" y2="61.9301" stroke="#202020"/>
<line x1="95.7898" y1="25.1997" x2="1.82946" y2="26.3497" stroke="#202020"/>
<rect x="41.0142" y="190.389" width="56.7935" height="8.89257" transform="rotate(-0.701248 41.0142 190.389)" fill="#202020"/>
<rect x="41.2802" y="212.125" width="56.7935" height="8.89257" transform="rotate(-0.701248 41.2802 212.125)" fill="#202020"/>
<rect x="40.8446" y="176.557" width="56.7935" height="7.90451" transform="rotate(-0.701248 40.8446 176.557)" fill="#202020"/>
<rect x="41.4371" y="224.969" width="56.7935" height="7.90451" transform="rotate(-0.701248 41.4371 224.969)" fill="#202020"/>
<rect x="41.5945" y="237.812" width="56.7935" height="7.90451" transform="rotate(-0.701248 41.5945 237.812)" fill="#202020"/>
<path d="M97.6703 178.826L3.72203 180.964" stroke="#202020"/>
<line x1="98.4138" y1="239.593" x2="4.45348" y2="240.744" stroke="#202020"/>
<line x1="97.9787" y1="204.026" x2="4.0183" y2="205.176" stroke="#202020"/>
<path d="M98.1238 215.876L4.16342 217.026" stroke="#202020"/>
<line x1="97.8335" y1="192.17" x2="3.87316" y2="193.32" stroke="#202020"/>
<path d="M97.6703 178.826L3.72203 180.964" stroke="#202020"/>
<line x1="97.2362" y1="227.75" x2="3.27587" y2="228.9" stroke="#202020"/>
<line x1="97.8335" y1="192.17" x2="3.87316" y2="193.32" stroke="#202020"/>
<path d="M97.6703 178.826L3.72203 180.964" stroke="#202020"/>
<line x1="98.4138" y1="239.593" x2="4.45348" y2="240.744" stroke="#202020"/>
<line x1="97.9787" y1="204.026" x2="4.0183" y2="205.176" stroke="#202020"/>
<path d="M98.1238 215.876L4.16342 217.026" stroke="#202020"/>
<line x1="97.8335" y1="192.17" x2="3.87316" y2="193.32" stroke="#202020"/>
<path d="M97.6703 178.826L3.72203 180.964" stroke="#202020"/>
<line x1="97.2362" y1="227.75" x2="3.27587" y2="228.9" stroke="#202020"/>
<line x1="97.8335" y1="192.17" x2="3.87316" y2="193.32" stroke="#202020"/>
<rect x="39.9982" y="107.398" width="56.7935" height="8.89257" transform="rotate(-0.701248 39.9982 107.398)" fill="#202020"/>
<rect x="40.2642" y="129.134" width="56.7935" height="8.89257" transform="rotate(-0.701248 40.2642 129.134)" fill="#202020"/>
<rect x="39.829" y="93.5661" width="56.7935" height="7.90451" transform="rotate(-0.701248 39.829 93.5661)" fill="#202020"/>
<rect x="40.4215" y="141.978" width="56.7935" height="7.90451" transform="rotate(-0.701248 40.4215 141.978)" fill="#202020"/>
<rect x="40.5786" y="154.821" width="56.7935" height="7.90451" transform="rotate(-0.701248 40.5786 154.821)" fill="#202020"/>
<path d="M96.6543 95.8345L2.70604 97.973" stroke="#202020"/>
<line x1="97.3981" y1="156.602" x2="3.43774" y2="157.752" stroke="#202020"/>
<line x1="96.9629" y1="121.035" x2="3.00255" y2="122.185" stroke="#202020"/>
<line x1="97.5432" y1="168.458" x2="3.58288" y2="169.608" stroke="#202020"/>
<path d="M97.1079 132.885L3.14755 134.035" stroke="#202020"/>
<line x1="96.8176" y1="109.179" x2="2.85729" y2="110.329" stroke="#202020"/>
<path d="M96.6543 95.8345L2.70604 97.973" stroke="#202020"/>
<line x1="96.2206" y1="144.759" x2="2.26025" y2="145.909" stroke="#202020"/>
<line x1="96.8176" y1="109.179" x2="2.85729" y2="110.329" stroke="#202020"/>
<path d="M96.6543 95.8345L2.70604 97.973" stroke="#202020"/>
<line x1="97.3981" y1="156.602" x2="3.43774" y2="157.752" stroke="#202020"/>
<line x1="96.9629" y1="121.035" x2="3.00255" y2="122.185" stroke="#202020"/>
<line x1="97.5432" y1="168.458" x2="3.58288" y2="169.608" stroke="#202020"/>
<path d="M97.1079 132.885L3.14755 134.035" stroke="#202020"/>
<line x1="96.8176" y1="109.179" x2="2.85729" y2="110.329" stroke="#202020"/>
<path d="M96.6543 95.8345L2.70604 97.973" stroke="#202020"/>
<line x1="96.2206" y1="144.759" x2="2.26025" y2="145.909" stroke="#202020"/>
<line x1="96.8176" y1="109.179" x2="2.85729" y2="110.329" stroke="#202020"/>
</g>
</svg>
