<svg width="212" height="306" viewBox="0 0 212 306" fill="none" xmlns="http://www.w3.org/2000/svg">
<path d="M94.5 49C111.035 48.2441 115.962 71.1826 100.575 77.2831L98.2295 78.213C86.3745 82.9132 85.3357 99.2887 96.5017 105.449L97.5 106V106C105.356 110.113 102.432 122 93.5651 122L7 122V63.1724C7 54.8211 13.8207 48.078 22.1714 48.1734L94.5 49V49Z" fill="black" fill-opacity="0.25"/>
<path d="M91.5 49C108.035 48.2441 112.962 71.1826 97.5749 77.2831L95.2295 78.213C83.3745 82.9132 82.3357 99.2887 93.5017 105.449L94.5 106V106C102.356 110.113 99.432 122 90.5651 122L4 122V63.1724C4 54.8211 10.8207 48.078 19.1714 48.1734L91.5 49V49Z" fill="#EFEFEF"/>
<path d="M18 295.084C10.268 295.079 4 288.807 4 281.075L4 119L78 119.049C86.2843 119.054 93 125.775 93 134.059L93 295.133L18 295.084Z" fill="#EFEFEF"/>
<path d="M18 295.084C10.268 295.079 4 288.807 4 281.075L4 119L78 119.049C86.2843 119.054 93 125.775 93 134.059L93 295.133L18 295.084Z" fill="#EFEFEF"/>
<path d="M56 201.995C48.268 201.99 42 195.717 42 187.985L42 122L94 122.034C102.284 122.04 109 128.76 109 137.044V202.03L56 201.995Z" fill="#EFEFEF"/>
<path d="M52.5393 201.992C46.7186 201.989 42 199.138 42 195.626L42 122L97.7079 122.037C103.944 122.041 109 125.095 109 128.858V202.03L52.5393 201.992Z" fill="#EFEFEF"/>
<path d="M107.357 292.867C106.175 294.312 104.406 295.147 102.533 295.143L73.8319 295.092C68.7638 295.082 64.2002 291.921 62.3801 287.158V287.158L59.8385 277.127C59.2266 274.712 58.9586 272.226 59.0425 269.743V269.743C59.4414 257.929 67.6627 247.92 79.1299 245.288L83.9942 244.172C86.4167 243.616 88.8975 243.339 91.3884 243.347L111.278 243.414C112.974 243.42 114.651 243.798 116.193 244.522V244.522C124.303 248.332 125.364 259.469 118.106 264.592L117.708 264.873C117.071 265.322 116.391 265.707 115.678 266.022L104.752 270.84C99.5626 273.129 99.5329 280.507 104.703 282.946L105.106 283.136C108.839 284.897 109.949 289.698 107.357 292.867V292.867Z" fill="black" fill-opacity="0.25"/>
<path d="M66.9397 137.729V137.729C60.9378 128.504 63.8669 116.345 73.4122 110.86L76.4257 109.128C79.4358 107.399 82.8169 106.365 86.3132 106.105L98.9765 105.165L119.755 106.473C129.029 107.057 134.936 116.534 131.168 124.786V124.786C127.724 132.329 132.362 141.127 140.688 142.845L151.734 145.123C167.142 148.3 163.665 170.489 147.962 169.778V169.778C135.57 169.217 129.991 184.737 140.132 191.823V191.823C145.162 195.338 146.86 201.884 144.13 207.239L143.461 208.551C138.843 217.609 126.107 218.811 119.604 210.802L97.9766 184.165L66.9397 137.729Z" fill="black" fill-opacity="0.25"/>
<path d="M64.9632 139.065L64.7254 138.699C58.541 129.194 60.2661 116.788 68.8001 109.399V109.399C74.8305 104.177 83.2325 102.407 91.0099 104.719L94.1457 105.651C96.0421 106.215 97.9967 106.563 99.97 106.687L117.778 107.808C127.053 108.392 132.959 117.869 129.191 126.121V126.121C125.747 133.664 130.385 142.463 138.711 144.18L149.757 146.458C165.166 149.636 161.689 171.824 145.986 171.113V171.113C133.593 170.552 128.014 186.072 138.155 193.158V193.158C143.186 196.674 144.883 203.219 142.153 208.574L141.484 209.886C136.867 218.944 124.13 220.146 117.627 212.137L96 185.5L64.9632 139.065Z" fill="#EFEFEF"/>
<path d="M105.391 292.82C104.194 294.301 102.393 295.159 100.482 295.159L71.9169 295.159C66.8047 295.159 62.2027 291.959 60.3927 287.145V287.145L57.8643 276.977C57.2583 274.54 56.9952 272.034 57.0828 269.53V269.53C57.5025 257.539 65.8254 247.375 77.4531 244.652L82.0293 243.58C84.4895 243.004 87.0108 242.715 89.5431 242.719L109.317 242.75C111.051 242.753 112.767 243.142 114.341 243.888V243.888C122.471 247.743 123.55 258.906 116.295 264.098L115.785 264.463C115.138 264.926 114.447 265.323 113.721 265.648L102.756 270.561C97.5412 272.897 97.5192 280.319 102.719 282.795L103.104 282.978C106.865 284.769 107.989 289.606 105.391 292.82V292.82Z" fill="#EFEFEF"/>
<path d="M114.976 259.721C114.091 259.905 113.177 259.924 112.281 259.774L78.9525 254.227C73.7542 253.362 69.3915 249.767 67.529 244.813V244.813L65.0007 234.646C64.3946 232.209 64.1315 229.702 64.2192 227.199V227.199C64.6388 215.208 72.9617 205.043 84.5894 202.32L89.1656 201.248C91.6258 200.672 94.1471 200.383 96.6794 200.387L115.144 200.416C117.754 200.421 120.348 200.873 122.814 201.753L122.989 201.816C126.918 203.219 130.386 205.695 133 208.962V208.962L133.452 209.415C135.577 211.539 135.323 215.045 132.919 216.794V216.794C132.315 217.234 131.615 217.526 130.876 217.647L125.055 218.603C123.453 218.866 121.906 219.387 120.475 220.145L118.986 220.933C111.855 224.708 109.627 233.886 114.202 240.635L119.472 248.407C122.417 252.752 120.07 258.66 114.976 259.721V259.721Z" fill="black" fill-opacity="0.25"/>
<path d="M112.549 260L77.8654 254.227C72.6672 253.362 68.3044 249.766 66.4419 244.813V244.813L63.9136 234.646C63.3075 232.208 63.0444 229.702 63.1321 227.198V227.198C63.5517 215.207 71.8746 205.043 83.5023 202.32L88.0785 201.248C90.5388 200.672 93.06 200.383 95.5923 200.387L118 200.422L131.85 201.414C132.645 201.471 133.428 201.65 134.171 201.944V201.944C141.265 204.752 140.661 215.005 133.295 216.806L132.5 217L127 218L123.772 218.592C122.299 218.862 120.877 219.356 119.556 220.055L116.768 221.531C110.311 224.95 108.415 233.335 112.747 239.314L119.413 248.512C123.212 253.754 118.92 260.937 112.549 260V260Z" fill="#EFEFEF"/>
</svg>
