<svg width="212" height="306" viewBox="0 0 212 306" fill="none" xmlns="http://www.w3.org/2000/svg">
<path d="M87.3409 50.6752C104.833 50.6752 119.013 64.8552 119.013 82.3471V82.3471C119.013 99.8391 104.833 114.019 87.3408 114.019H21.0007C12.7164 114.019 6.00069 107.303 6.00069 99.0191V65.6752C6.00069 57.3909 12.7164 50.6752 21.0007 50.6752L87.3409 50.6752Z" fill="#5A5959"/>
<path d="M73.4673 50.6752C93.6503 50.6752 110.012 67.0367 110.012 87.2198V87.2198C110.012 107.403 93.6503 123.764 73.4673 123.764H4.00047V65.6752C4.00047 57.3909 10.7162 50.6752 19.0005 50.6752L73.4673 50.6752Z" fill="#EFEFEF"/>
<path d="M81.182 173.77C68.2109 161.48 65.2153 142.272 73.8483 126.745L89.3204 98.9167C92.8045 92.6503 101.152 90.8029 107.054 94.9919V94.9919C109.154 96.4824 111.693 97.2715 114.293 97.2418L122.024 97.1536C133.423 97.0235 141.455 107.989 137.632 118.462V118.462C135.232 125.034 137.48 132.356 143.185 136.553L166.253 153.521C173.694 158.995 171.37 170.429 162.345 172.753L151.964 175.425C146.057 176.946 145.018 184.687 150.328 187.617V187.617C153.217 189.211 154.5 192.605 153.364 195.649L150.11 204.375C145.625 216.403 129.906 219.935 120.505 211.027L81.182 173.77Z" fill="#5E5E5E"/>
<path d="M126.31 249.492C134.81 253.74 139.859 262.685 139.11 272.169L138.594 278.704C137.663 290.493 125.95 298.452 114.637 294.982V294.982C112.889 294.445 111.068 294.173 109.234 294.173L84.5819 294.173C81.8568 294.173 79.1446 293.848 76.5031 293.207L29.8868 281.88C20.6024 279.625 18.2219 267.621 25.9182 261.868L40.1791 251.209C44.6096 247.898 42.2208 240.918 36.7073 241.066V241.066C33.9264 241.14 31.5219 239.195 31.0305 236.475L29.5923 228.512C27.3654 216.182 40.311 206.509 51.5325 212.117L126.31 249.492Z" fill="#575757"/>
<path d="M82.1822 219.572C69.211 207.282 66.2154 188.075 74.8484 172.547L90.3206 144.719C93.8046 138.453 102.152 136.605 108.054 140.794V140.794C110.154 142.285 112.693 143.074 115.293 143.044L123.025 142.956C134.424 142.826 142.456 153.792 138.632 164.264V164.264C136.232 170.837 138.48 178.159 144.185 182.355L167.253 199.324C174.694 204.797 172.37 216.232 163.345 218.555L152.964 221.228C147.057 222.748 146.018 230.489 151.328 233.419V233.419C154.217 235.013 155.5 238.408 154.364 241.452L151.11 250.178C146.625 262.206 130.906 265.738 121.505 256.83L82.1822 219.572Z" fill="#5E5E5E"/>
<path d="M18 298.084C10.268 298.079 4 291.807 4 284.075L4 122L96.1113 122.061C104.396 122.066 111.111 128.786 111.111 137.071L111.111 298.145L18 298.084Z" fill="#EFEFEF"/>
<path d="M114.733 109.888C115.075 115.464 117.489 120.717 121.503 124.615L121.97 125.069C136.964 139.632 127.622 165.009 106.793 166.295L90.1459 167.322C69.8555 168.575 54.8962 148.575 61.8561 129.501L71.3589 103.457C79.6668 80.6888 113.248 85.6679 114.733 109.888V109.888Z" fill="#EFEFEF"/>
<path d="M72.0832 217.245C59.112 204.955 56.1164 185.747 64.7494 170.22L80.2216 142.392C83.7056 136.125 92.0528 134.278 97.9549 138.467V138.467C100.055 139.957 102.594 140.746 105.194 140.717L112.926 140.629C124.325 140.498 132.357 151.464 128.533 161.937V161.937C126.133 168.509 128.381 175.831 134.086 180.028L157.154 196.996C164.595 202.47 162.271 213.904 153.246 216.228L142.865 218.9C136.958 220.421 135.919 228.162 141.229 231.092V231.092C144.118 232.686 145.401 236.08 144.265 239.124L141.011 247.85C136.526 259.878 120.807 263.41 111.406 254.502L72.0832 217.245Z" fill="#EFEFEF"/>
<path d="M72.1811 171.821C59.2099 159.531 56.2143 140.323 64.8473 124.796L80.3195 96.9677C83.8035 90.7013 92.1507 88.8538 98.0528 93.0428V93.0428C100.153 94.5333 102.692 95.3224 105.292 95.2928L113.023 95.2045C124.422 95.0745 132.454 106.04 128.631 116.513V116.513C126.231 123.085 128.479 130.407 134.184 134.604L157.252 151.572C164.693 157.046 162.369 168.48 153.344 170.803L142.963 173.476C137.056 174.997 136.017 182.738 141.327 185.668V185.668C144.216 187.262 145.499 190.656 144.363 193.7L141.109 202.426C136.624 214.454 120.905 217.986 111.504 209.078L72.1811 171.821Z" fill="#EFEFEF"/>
<path d="M117.111 244.915C127.227 249.949 133.247 260.58 132.367 271.858L131.671 280.785C130.923 290.376 122.871 297.84 113.214 297.893V297.893L88.1312 296.627C85.0146 296.47 81.9308 295.951 78.9423 295.08L23.2448 278.848C14.2292 276.22 12.1933 264.447 19.7808 258.817L34.4595 247.925C38.8588 244.661 36.51 237.74 31.0494 237.877V237.877C28.3067 237.945 25.9358 236.03 25.4444 233.348L24.0152 225.55C21.7874 213.393 34.5392 203.822 45.6183 209.336L117.111 244.915Z" fill="#EFEFEF"/>
</svg>
